HIERARCHY
ROOT Hips
{
	OFFSET 0.000000 1.471914 24.280096
	CHANNELS 6 Xposition Yposition Zposition Xrotation Yrotation Zrotation
	JOINT Spine
	{
		OFFSET 0.000000 0.900110 1.860670
		CHANNELS 6 Xposition Yposition Zposition Xrotation Yrotation Zrotation
		JOINT Spine1
		{
			OFFSET 0.000000 0.400320 2.270309
			CHANNELS 6 Xposition Yposition Zposition Xrotation Yrotation Zrotation
			JOINT Spine2
			{
				OFFSET 0.000000 0.200920 2.296560
				CHANNELS 6 Xposition Yposition Zposition Xrotation Yrotation Zrotation
				JOINT Spine3
				{
					OFFSET 0.000000 0.000000 2.305330
					CHANNELS 6 Xposition Yposition Zposition Xrotation Yrotation Zrotation
					JOINT Neck
					{
						OFFSET 0.000000 -0.864490 6.051487
						CHANNELS 6 Xposition Yposition Zposition Xrotation Yrotation Zrotation
						JOINT Head
						{
							OFFSET 0.000000 -0.550429 3.121674
							CHANNELS 6 Xposition Yposition Zposition Xrotation Yrotation Zrotation
							End Site
							{
								OFFSET 0.000000 0.000000 3.731750
							}
						}
					}
					JOINT RightShoulder
					{
						OFFSET -0.788280 -1.313800 4.256718
						CHANNELS 6 Xposition Yposition Zposition Xrotation Yrotation Zrotation
						JOINT RightArm
						{
							OFFSET -3.915130 0.000000 0.000000
							CHANNELS 6 Xposition Yposition Zposition Xrotation Yrotation Zrotation
							JOINT RightForeArm
							{
								OFFSET -6.914910 0.000000 0.000000
								CHANNELS 6 Xposition Yposition Zposition Xrotation Yrotation Zrotation
								JOINT RightHand
								{
									OFFSET -6.096219 0.000000 0.000000
									CHANNELS 6 Xposition Yposition Zposition Xrotation Yrotation Zrotation
									JOINT RightHandEnd
									{
										OFFSET -1.749950 0.000000 0.000000
										CHANNELS 6 Xposition Yposition Zposition Xrotation Yrotation Zrotation
										End Site
										{
											OFFSET -1.749950 0.000000 0.000000
										}
									}
									JOINT RightHandThumb1
									{
										OFFSET -0.699980 -1.166630 -0.466648
										CHANNELS 6 Xposition Yposition Zposition Xrotation Yrotation Zrotation
										End Site
										{
											OFFSET -1.690319 -0.452920 0.000000
										}
									}
								}
							}
						}
					}
					JOINT LeftShoulder
					{
						OFFSET 0.788280 -1.313800 4.256718
						CHANNELS 6 Xposition Yposition Zposition Xrotation Yrotation Zrotation
						JOINT LeftArm
						{
							OFFSET 3.915130 0.000000 0.000000
							CHANNELS 6 Xposition Yposition Zposition Xrotation Yrotation Zrotation
							JOINT LeftForeArm
							{
								OFFSET 6.914910 0.000000 0.000000
								CHANNELS 6 Xposition Yposition Zposition Xrotation Yrotation Zrotation
								JOINT LeftHand
								{
									OFFSET 6.096219 0.000000 0.000000
									CHANNELS 6 Xposition Yposition Zposition Xrotation Yrotation Zrotation
									JOINT LeftHandEnd
									{
										OFFSET 1.749950 0.000000 0.000000
										CHANNELS 6 Xposition Yposition Zposition Xrotation Yrotation Zrotation
										End Site
										{
											OFFSET 1.749950 0.000000 0.000000
										}
									}
									JOINT LeftHandThumb1
									{
										OFFSET 0.699980 -1.166630 -0.466648
										CHANNELS 6 Xposition Yposition Zposition Xrotation Yrotation Zrotation
										End Site
										{
											OFFSET 1.690319 -0.452920 0.000000
										}
									}
								}
							}
						}
					}
				}
			}
		}
	}
	JOINT RightUpLeg
	{
		OFFSET -2.338570 -0.252550 -0.551512
		CHANNELS 6 Xposition Yposition Zposition Xrotation Yrotation Zrotation
		JOINT RightLeg
		{
			OFFSET 0.000000 0.000000 -10.744959
			CHANNELS 6 Xposition Yposition Zposition Xrotation Yrotation Zrotation
			JOINT RightFoot
			{
				OFFSET 0.000000 -0.000001 -10.930849
				CHANNELS 6 Xposition Yposition Zposition Xrotation Yrotation Zrotation
				JOINT RightToeBase
				{
					OFFSET 0.000000 -4.087269 -1.487650
					CHANNELS 6 Xposition Yposition Zposition Xrotation Yrotation Zrotation
					End Site
					{
						OFFSET 0.000000 -1.891870 0.000000
					}
				}
			}
		}
	}
	JOINT LeftUpLeg
	{
		OFFSET 2.338570 -0.252550 -0.551512
		CHANNELS 6 Xposition Yposition Zposition Xrotation Yrotation Zrotation
		JOINT LeftLeg
		{
			OFFSET 0.000000 0.000000 -10.744959
			CHANNELS 6 Xposition Yposition Zposition Xrotation Yrotation Zrotation
			JOINT LeftFoot
			{
				OFFSET 0.000000 -0.000001 -10.930849
				CHANNELS 6 Xposition Yposition Zposition Xrotation Yrotation Zrotation
				JOINT LeftToeBase
				{
					OFFSET 0.000000 -4.087269 -1.487650
					CHANNELS 6 Xposition Yposition Zposition Xrotation Yrotation Zrotation
					End Site
					{
						OFFSET 0.000000 -1.891870 0.000000
					}
				}
			}
		}
	}
}
MOTION
Frames: 6
Frame Time: 0.041667
-0.000051 27.319361 34.998070 -10.495571 0.952072 -17.420937 -0.000013 0.900083 1.860688 26.648389 -5.560232 -0.768200 0.000007 0.400254 2.270329 -0.000003 -0.000000 0.000012 0.000023 0.200901 2.296564 0.000002 -0.000000 0.000000 0.000028 0.000019 2.305328 -0.000053 0.000001 -3.908766 -0.000018 -0.864477 6.051432 -8.184731 -5.050121 174.023781 0.000012 -0.550419 3.121696 -0.000008 0.000001 -0.000002 -0.788274 -1.313733 4.256822 -143.702836 55.297386 -55.485714 -3.915137 -0.000026 -0.000008 0.000000 -0.000001 -0.000000 -6.914898 -0.000020 0.000003 0.000021 0.000010 -98.319391 -6.096180 0.000025 0.000035 -0.000140 -0.000146 -0.000076 -1.749898 -0.000033 0.000042 -0.000001 -0.000001 -0.000001 -0.699965 -1.166633 -0.466655 -0.000008 -0.000004 -0.000006 0.788260 -1.313750 4.256778 22.561030 -108.736243 -134.419748 3.915159 0.000020 -0.000038 0.000003 0.000002 0.000007 6.914933 -0.000074 -0.000003 0.000006 0.000006 103.582011 6.096217 0.000111 -0.000028 -0.000062 0.000161 -0.000005 1.749987 0.000010 0.000028 -0.000002 -0.000005 0.000003 0.699960 -1.166607 -0.466632 0.000016 -0.000002 -0.000023 -2.338574 -0.252538 -0.551488 -46.239476 4.718119 1.220705 0.000011 -0.000022 -10.744963 76.419770 -1.350695 3.451415 -0.000014 0.000082 -10.930836 -0.000005 -0.000001 0.000001 0.000010 -4.087239 -1.487641 0.000003 0.000004 -0.000004 2.338568 -0.252526 -0.551486 -46.603774 0.728873 1.244488 0.000002 -0.000022 -10.744922 77.503079 1.672997 -0.437884 -0.000005 0.000014 -10.930861 -0.000005 -0.000005 -0.000001 -0.000015 -4.087204 -1.487645 -0.000001 0.000001 -0.000003 
-0.000058 27.319361 34.998077 -10.446361 0.975114 -17.595710 -0.000014 0.900082 1.860686 26.656278 -5.865374 -0.738708 0.000011 0.400253 2.270330 -0.000003 -0.000000 0.000012 0.000023 0.200899 2.296560 0.000004 -0.000000 -0.000002 0.000029 0.000017 2.305324 -0.000059 0.000000 -3.857212 -0.000017 -0.864470 6.051425 -7.893877 -5.043404 173.815364 0.000014 -0.550421 3.121696 -0.000009 -0.000000 -0.000001 -0.788275 -1.313724 4.256825 -143.460378 54.855681 -55.703195 -3.915134 -0.000030 -0.000008 -0.000000 -0.000003 -0.000000 -6.914902 -0.000018 0.000003 0.000021 0.000009 -98.640752 -6.096180 0.000033 0.000036 -0.000140 -0.000146 -0.000077 -1.749899 -0.000035 0.000037 0.000001 -0.000001 -0.000000 -0.699964 -1.166633 -0.466652 -0.000010 -0.000005 -0.000007 0.788260 -1.313742 4.256775 22.118048 -108.506250 -134.834546 3.915152 0.000019 -0.000038 0.000003 0.000003 0.000008 6.914939 -0.000068 -0.000000 0.000006 0.000005 103.832529 6.096214 0.000103 -0.000025 -0.000064 0.000156 0.000001 1.749993 0.000013 0.000024 -0.000003 -0.000005 0.000002 0.699964 -1.166606 -0.466635 0.000015 -0.000001 -0.000025 -2.338574 -0.252539 -0.551493 -46.197760 4.667578 1.171655 0.000012 -0.000022 -10.744958 76.361037 -1.252592 3.445496 -0.000013 0.000084 -10.930837 0.000002 -0.000001 -0.000001 0.000011 -4.087238 -1.487643 -0.000004 0.000002 -0.000003 2.338568 -0.252524 -0.551492 -46.511044 0.620885 1.194354 0.000002 -0.000019 -10.744920 77.306820 1.839917 -0.500282 -0.000006 0.000015 -10.930860 -0.000005 -0.000005 -0.000002 -0.000014 -4.087205 -1.487643 0.000005 0.000001 -0.000002 
-0.000058 27.319365 34.998081 -10.413354 1.073903 -17.519789 -0.000015 0.900081 1.860688 26.656729 -6.182045 -0.703311 0.000010 0.400258 2.270330 -0.000002 -0.000003 0.000010 0.000021 0.200897 2.296562 -0.000000 -0.000001 0.000001 0.000030 0.000015 2.305328 -0.000057 0.000001 -3.782366 -0.000016 -0.864474 6.051425 -7.845627 -5.158550 173.174515 0.000014 -0.550423 3.121692 -0.000009 -0.000000 0.000003 -0.788274 -1.313729 4.256824 -143.840533 54.911279 -55.612773 -3.915139 -0.000027 -0.000008 -0.000000 -0.000002 -0.000000 -6.914899 -0.000016 -0.000005 0.000020 0.000009 -98.990225 -6.096175 0.000026 0.000032 -0.000138 -0.000144 -0.000078 -1.749893 -0.000032 0.000038 0.000001 0.000000 0.000001 -0.699962 -1.166633 -0.466655 -0.000008 -0.000004 -0.000007 0.788260 -1.313747 4.256773 21.431797 -108.186877 -135.543219 3.915153 0.000016 -0.000038 0.000003 0.000003 0.000006 6.914938 -0.000071 -0.000000 0.000013 0.000005 103.804942 6.096216 0.000108 -0.000026 -0.000062 0.000160 -0.000003 1.749989 0.000015 0.000029 -0.000002 -0.000009 -0.000003 0.699962 -1.166604 -0.466635 0.000015 0.000001 -0.000025 -2.338575 -0.252538 -0.551489 -46.129049 4.661407 1.113160 0.000009 -0.000018 -10.744962 76.175946 -1.345911 3.488811 -0.000013 0.000087 -10.930836 -0.000002 -0.000002 0.000002 0.000010 -4.087236 -1.487641 0.000004 0.000004 -0.000004 2.338567 -0.252526 -0.551491 -46.560136 0.499135 1.137853 0.000003 -0.000020 -10.744923 77.365505 1.828654 -0.565048 -0.000007 0.000013 -10.930861 -0.000003 -0.000004 0.000000 -0.000015 -4.087205 -1.487646 0.000006 0.000002 -0.000002 
-0.000058 27.319363 34.998093 -10.411198 1.079297 -17.498926 -0.000015 0.900080 1.860685 26.714630 -6.452475 -0.692342 0.000010 0.400253 2.270329 -0.000001 -0.000001 0.000014 0.000023 0.200898 2.296564 0.000004 -0.000000 -0.000001 0.000032 0.000023 2.305332 -0.000056 0.000003 -3.777776 -0.000018 -0.864475 6.051430 -7.999801 -5.268205 173.111650 0.000015 -0.550423 3.121689 -0.000009 0.000001 -0.000001 -0.788274 -1.313731 4.256825 -144.199268 55.175299 -55.553275 -3.915133 -0.000028 -0.000008 -0.000000 -0.000002 -0.000000 -6.914897 -0.000016 -0.000001 0.000020 0.000008 -99.237840 -6.096179 0.000030 0.000032 -0.000140 -0.000144 -0.000079 -1.749901 -0.000036 0.000038 0.000003 0.000000 0.000001 -0.699967 -1.166634 -0.466655 -0.000008 -0.000004 -0.000006 0.788262 -1.313748 4.256777 21.428773 -107.862586 -135.391111 3.915153 0.000020 -0.000038 0.000003 0.000003 0.000006 6.914944 -0.000072 -0.000004 0.000009 0.000008 104.576405 6.096214 0.000106 -0.000027 -0.000062 0.000156 -0.000004 1.749991 0.000010 0.000029 0.000000 -0.000012 -0.000003 0.699968 -1.166616 -0.466632 0.000016 -0.000005 -0.000026 -2.338575 -0.252540 -0.551491 -45.945334 4.623011 1.089339 0.000011 -0.000022 -10.744958 75.942858 -1.236500 3.463705 -0.000013 0.000086 -10.930834 0.000002 -0.000001 0.000000 0.000011 -4.087243 -1.487640 0.000003 0.000003 -0.000005 2.338567 -0.252525 -0.551490 -46.351713 0.406359 1.113562 0.000002 -0.000017 -10.744923 77.145798 1.889867 -0.640179 -0.000006 0.000012 -10.930865 -0.000005 -0.000004 -0.000000 -0.000016 -4.087204 -1.487645 -0.000002 0.000000 -0.000001 
-0.000059 27.319372 34.998093 -10.467960 1.075906 -17.524129 -0.000015 0.900080 1.860681 26.737474 -6.504626 -0.729250 0.000009 0.400261 2.270330 -0.000000 -0.000003 0.000011 0.000023 0.200903 2.296568 0.000002 -0.000000 0.000000 0.000029 0.000016 2.305332 -0.000052 0.000004 -3.717788 -0.000017 -0.864477 6.051436 -7.896020 -5.587487 173.761379 0.000015 -0.550424 3.121689 -0.000008 -0.000001 -0.000004 -0.788275 -1.313733 4.256825 -144.210360 54.903082 -55.661670 -3.915134 -0.000029 -0.000004 0.000000 -0.000002 -0.000000 -6.914906 -0.000021 -0.000001 0.000019 0.000008 -99.629162 -6.096180 0.000035 0.000031 -0.000138 -0.000146 -0.000077 -1.749894 -0.000041 0.000038 -0.000001 -0.000001 0.000000 -0.699963 -1.166639 -0.466660 -0.000010 -0.000004 -0.000009 0.788257 -1.313749 4.256779 21.851095 -107.842472 -134.870555 3.915154 0.000020 -0.000038 0.000006 0.000000 0.000008 6.914938 -0.000072 -0.000003 0.000009 0.000006 105.006611 6.096214 0.000104 -0.000032 -0.000065 0.000157 -0.000001 1.749991 0.000009 0.000030 -0.000003 -0.000006 -0.000001 0.699964 -1.166613 -0.466635 0.000015 0.000002 -0.000025 -2.338575 -0.252540 -0.551495 -45.840599 4.609470 1.144554 0.000011 -0.000023 -10.744957 75.856163 -1.288502 3.393513 -0.000012 0.000085 -10.930838 -0.000007 -0.000001 -0.000001 0.000010 -4.087237 -1.487641 0.000001 0.000004 -0.000003 2.338567 -0.252527 -0.551489 -46.225802 0.441193 1.168747 0.000003 -0.000020 -10.744924 77.186650 1.888946 -0.662453 -0.000006 0.000015 -10.930863 -0.000003 -0.000005 -0.000001 -0.000015 -4.087206 -1.487645 0.000005 -0.000000 -0.000001 
-0.000059 27.319370 34.998093 -10.460574 1.083761 -17.480493 -0.000015 0.900079 1.860685 26.789773 -6.740262 -0.727258 0.000010 0.400253 2.270330 -0.000003 -0.000001 0.000009 0.000024 0.200901 2.296564 0.000004 -0.000001 -0.000002 0.000029 0.000020 2.305336 -0.000055 0.000003 -3.680368 -0.000019 -0.864474 6.051435 -8.032690 -5.600519 173.916465 0.000014 -0.550424 3.121700 -0.000008 0.000000 -0.000001 -0.788275 -1.313731 4.256821 -144.499059 54.784975 -55.556895 -3.915141 -0.000026 -0.000004 -0.000000 -0.000001 -0.000000 -6.914904 -0.000020 0.000002 0.000019 0.000008 -99.693277 -6.096180 0.000024 0.000031 -0.000145 -0.000146 -0.000077 -1.749894 -0.000033 0.000041 0.000004 0.000001 0.000001 -0.699961 -1.166632 -0.466648 -0.000006 -0.000003 -0.000008 0.788261 -1.313747 4.256775 22.477162 -107.839856 -134.154819 3.915156 0.000016 -0.000042 0.000007 0.000004 0.000007 6.914940 -0.000073 -0.000003 0.000010 0.000009 105.494751 6.096217 0.000108 -0.000036 -0.000064 0.000155 0.000003 1.749991 0.000004 0.000032 -0.000007 -0.000005 0.000000 0.699965 -1.166613 -0.466631 0.000015 -0.000003 -0.000025 -2.338576 -0.252540 -0.551494 -45.687231 4.677537 1.135808 0.000009 -0.000020 -10.744956 75.708023 -1.411526 3.459856 -0.000012 0.000083 -10.930835 -0.000002 -0.000002 -0.000000 0.000012 -4.087243 -1.487644 0.000008 0.000003 -0.000004 2.338567 -0.252526 -0.551490 -46.164723 0.432712 1.161667 0.000004 -0.000020 -10.744921 77.263100 1.847176 -0.666616 -0.000006 0.000013 -10.930860 -0.000010 -0.000005 -0.000001 -0.000015 -4.087204 -1.487645 0.000002 0.000001 -0.000001 
